<svg width="56" height="56" viewBox="0 0 56 56" fill="none" xmlns="http://www.w3.org/2000/svg">
<path d="M28 0C43.464 0 56 12.536 56 28C56 43.464 43.464 56 28 56C12.536 56 0 43.464 0 28C0 12.536 12.536 0 28 0ZM28 2C13.6406 2 2 13.6406 2 28C2 42.3594 13.6406 54 28 54C42.3594 54 54 42.3594 54 28C54 13.6406 42.3594 2 28 2ZM25.96 19.293C26.3505 18.9026 26.9836 18.9025 27.374 19.293C27.7643 19.6835 27.7643 20.3165 27.374 20.707L21.0811 27H37.333C37.8853 27 38.333 27.4477 38.333 28C38.333 28.5523 37.8853 29 37.333 29H21.0811L27.374 35.293C27.7643 35.6835 27.7643 36.3165 27.374 36.707C26.9836 37.0975 26.3505 37.0974 25.96 36.707L17.9688 28.7158C17.9184 28.6667 17.8732 28.6125 17.834 28.5537C17.8277 28.5442 17.8224 28.5341 17.8164 28.5244C17.7558 28.4264 17.7104 28.3178 17.6865 28.2012L17.6846 28.1914C17.6761 28.1479 17.6716 28.1037 17.6689 28.0596C17.6678 28.0398 17.666 28.02 17.666 28C17.666 27.9797 17.6677 27.9595 17.6689 27.9395C17.6735 27.8637 17.6853 27.7881 17.707 27.7148C17.7563 27.5489 17.8479 27.4008 17.9688 27.2832L25.96 19.293Z" fill="#CCCCCC"/>
</svg>
